<svg xmlns="http://www.w3.org/2000/svg" width="512" height="512" viewBox="0 0 512 512" style="" class="thumb"><defs transform="matrix(0.5053722225129604, 0, 0, 0.5053722225129604, 76.31510615348816, 114.9729061126709)"><linearGradient x1="83.44%" y1="12.86%" x2="16.56%" y2="87.14%" id="o_f4hb6cck3_5" gradientUnits="objectBoundingBox"><stop offset="31%" stop-color="rgb(0, 57, 115)" stop-opacity="1"></stop><stop offset="100%" stop-color="rgb(136, 192, 197)" stop-opacity="1"></stop></linearGradient><linearGradient x1="16.55%" y1="12.85%" x2="83.45%" y2="87.15%" id="o_f4hb6cck3_6" gradientUnits="objectBoundingBox"><stop offset="0%" stop-color="rgb(237, 222, 93)" stop-opacity="1"></stop><stop offset="100%" stop-color="rgb(240, 152, 25)" stop-opacity="1"></stop></linearGradient></defs><path transform="matrix(1.9377367496490479, 0, 0, 1.9377367496490479, 156.95484161376953, 149.10088043922576)" data-type="circle" data-cx="50" data-cy="50" data-r="50" d="M50 50m-50 0a50 50 0 1 0 100 0a50 50 0 1 0 -100 0" fill="url(#o_f4hb6cck3_6)"></path><g transform="matrix(-0.258459135890007, 0.8062433414161205, 0.8062433414161205, 0.258459135890007, 220.87751293182373, 240.15199756622314)" fill="rgba(18, 30, 41, 1)"><path fill-rule="evenodd" clip-rule="evenodd" d="M69.554 37.344C64.785 17.632 41.086 7.146 22.732 17.86   c-1.508 0.88-3.71 2.352-8.072 7.018c3.64-4.594 6.328-6.429 7.775-7.537c6.919-5.296 15.571-8.442 24.958-8.442   c11.35 0 21.625 4.6 29.063 12.038C83.893 28.375 88.494 38.65 88.494 50c0 7.999-2.177 15.534-6.239 21.78   c-1.274 1.96-4.026 4.055-8.043 4.055c-5.46 0-9.887-4.398-9.887-9.824c0-2.556 0.982-4.884 2.592-6.631   C71.903 51.684 70.721 42.172 69.554 37.344L69.554 37.344z" transform="matrix(1, 0, 0, 1, 2, -4)" fill="rgba(18, 30, 41, 1)"></path><path fill-rule="evenodd" clip-rule="evenodd" d="M37.551 26.809C15.94 20.153 8.691 37.974 7.716 42.632   c0.55-4.334 1.541-6.54 2.03-7.803c2.337-6.042 6.566-11.376 12.437-14.981c7.099-4.359 15.255-5.365 22.702-3.467   c7.447 1.898 14.186 6.699 18.452 13.953c1.988 3.381 3.682 8.127 3.975 10.571c0.118 0.986 0.23 1.635 0.23 2.451   c0 5.041-3.896 9.127-8.702 9.127c-4.806 0-8.702-4.086-8.702-9.127c-0.074-0.222-0.106-0.304-0.088-0.394   C48.824 35.455 42.018 28.185 37.551 26.809L37.551 26.809z" transform="matrix(1, 0, 0, 1, 0, -2)" fill="rgba(18, 30, 41, 1)"></path><path fill-rule="evenodd" clip-rule="evenodd" d="M25.252 43.317c-9.604-7.23-16.367 2.075-16.455 5.756   c-0.065-2.788 0.217-4.51 0.405-5.378c0.93-4.29 3.209-8.306 6.778-11.339c4.316-3.668 9.698-5.168 14.92-4.725   c5.946 0.505 10.357 4.431 10.357 9.509s-4.116 9.194-9.194 9.194C29.363 46.335 26.934 45.171 25.252 43.317L25.252 43.317z" transform="matrix(1, 0, 0, 1, 0, 0)" fill="rgba(18, 30, 41, 1)"></path></g><g transform="matrix(-0.258459135890007, 0.8062433414161205, 0.8062433414161205, 0.258459135890007, 219.07880783081055, 238.50055313110352)" fill="url(#o_f4hb6cck3_5)"><path fill-rule="evenodd" clip-rule="evenodd" d="M69.554 37.344C64.785 17.632 41.086 7.146 22.732 17.86   c-1.508 0.88-3.71 2.352-8.072 7.018c3.64-4.594 6.328-6.429 7.775-7.537c6.919-5.296 15.571-8.442 24.958-8.442   c11.35 0 21.625 4.6 29.063 12.038C83.893 28.375 88.494 38.65 88.494 50c0 7.999-2.177 15.534-6.239 21.78   c-1.274 1.96-4.026 4.055-8.043 4.055c-5.46 0-9.887-4.398-9.887-9.824c0-2.556 0.982-4.884 2.592-6.631   C71.903 51.684 70.721 42.172 69.554 37.344L69.554 37.344z" transform="matrix(1, 0, 0, 1, 2, -4)" fill="url(#o_f4hb6cck3_5)"></path><path fill-rule="evenodd" clip-rule="evenodd" d="M37.551 26.809C15.94 20.153 8.691 37.974 7.716 42.632   c0.55-4.334 1.541-6.54 2.03-7.803c2.337-6.042 6.566-11.376 12.437-14.981c7.099-4.359 15.255-5.365 22.702-3.467   c7.447 1.898 14.186 6.699 18.452 13.953c1.988 3.381 3.682 8.127 3.975 10.571c0.118 0.986 0.23 1.635 0.23 2.451   c0 5.041-3.896 9.127-8.702 9.127c-4.806 0-8.702-4.086-8.702-9.127c-0.074-0.222-0.106-0.304-0.088-0.394   C48.824 35.455 42.018 28.185 37.551 26.809L37.551 26.809z" transform="matrix(1, 0, 0, 1, 0, -2)" fill="url(#o_f4hb6cck3_5)"></path><path fill-rule="evenodd" clip-rule="evenodd" d="M25.252 43.317c-9.604-7.23-16.367 2.075-16.455 5.756   c-0.065-2.788 0.217-4.51 0.405-5.378c0.93-4.29 3.209-8.306 6.778-11.339c4.316-3.668 9.698-5.168 14.92-4.725   c5.946 0.505 10.357 4.431 10.357 9.509s-4.116 9.194-9.194 9.194C29.363 46.335 26.934 45.171 25.252 43.317L25.252 43.317z" transform="matrix(1, 0, 0, 1, 0, 0)" fill="url(#o_f4hb6cck3_5)"></path></g><path text="Sodium" fill="#6e0e85" space="preserve" text-anchor="end" offset="1" font-scale="contain" font-size="48" font-family="Molle" transform="matrix(1.0192331051926964, -0.08084919718248106, 0.08084919718248106, 1.0192331051926964, 226.67893773810096, 264.2266950743966)" font-weight="400" font-style="normal" path="M-183.4302551831264 -7.505365981836292C-172.15843406092614 59.33882394763566 21.32060429224731 -74.5087663710114 107.31626129150393 -15.789962234732485" data-fl-textpath="" d="M-51.985173974612465-14.52086430908444L-51.985173974612465-14.52086430908444Q-54.21258269214138-15.88202205346096 -55.66059514775682-17.995138218839124Q-57.11124273376494-20.117900942557633 -57.654079594655485-22.105091960668005Q-58.19691645554602-24.09228297877837 -58.05320556226798-24.40106636426605Q-57.90949466898995-24.709849749753715 -57.68945851292116-24.96691800921505L-57.68945851292116-24.96691800921505Q-57.291454768469606-25.4073643957396 -56.66626316210648-25.775108131693166L-56.66626316210648-25.775108131693166Q-53.51763980756601-21.534946463638235 -48.14916920190226-21.539779281054443L-48.14916920190226-21.539779281054443Q-46.42398938894995-21.52382268424202 -44.784074471091884-21.971794850996346Q-43.144159553233806-22.419767017750676 -41.94022120574856-23.059636110186368Q-40.743294286210975-23.68722351388905 -39.95429822525553-24.555834598205145L-39.95429822525553-24.555834598205145Q-38.2711346841296-26.477282097832553 -39.0195117156486-29.216904666489558L-39.0195117156486-29.216904666489558Q-39.58606475007319-31.290914709663003 -41.93393578032981-33.396645372706516L-41.93393578032981-33.396645372706516Q-42.946444795117436-34.33292817986139 -44.06243082125613-35.23057799435652Q-45.18806340573519-36.12559267845898 -46.19883125336048-37.09345029102755L-46.19883125336048-37.09345029102755Q-48.57041845715115-39.28599997913413 -49.086904014114964-41.17672541384108Q-49.6007544406861-43.057804290207685 -49.41276068301475-44.45678904604908Q-49.22740205573607-45.865420360230814 -48.575386015901216-47.1216349453229Q-47.92336997606637-48.37784953041499 -46.88012782323577-49.49214114868974Q-45.83688567040517-50.606432766964495 -44.510270713484886-51.51824017868882L-44.510270713484886-51.51824017868882Q-41.85266450208934-53.363783249210826 -38.553541549692525-54.26499784350483L-38.553541549692525-54.26499784350483Q-35.428056647421855-55.11878009073072 -33.46688961814961-54.959959804572264Q-31.508357719270023-54.81078607675413 -30.55918535250329-54.33405573561101Q-29.622294674469572-53.86433682241555 -29.443105807767843-53.20837085527233Q-29.26391694106611-52.5524048881291 -29.34527866815035-52.053325466227264Q-29.429275525627258-51.563892602665774 -29.629031083188266-51.04283817439221L-29.629031083188266-51.04283817439221Q-30.06449330127898-49.980542237934046 -30.596608139966598-49.347965129236265L-30.596608139966598-49.347965129236265Q-32.83921423241144-51.409886057431436 -36.75265541795083-51.42933052512977L-36.75265541795083-51.42933052512977Q-38.016494838430695-51.426181042454985 -39.3187802143768-51.070438439444196Q-40.621065590322914-50.71469583643341 -41.817098546630156-50.0458870689767Q-43.022778061277734-49.374443171127304 -43.83633749969921-48.51985494270655L-43.83633749969921-48.51985494270655Q-45.680904161516644-46.65798120098514 -45.12489164866274-44.62255739117307L-45.12489164866274-44.62255739117307Q-44.821851653505405-43.513203182033784 -43.74007556317307-42.62694109304132Q-42.655664342448055-41.73103244570851 -41.16868604252301-40.84142830028651Q-39.674696314650284-39.96410584359754 -37.95615385525866-39.023727294677904Q-36.24725795420738-38.08071361536561 -34.68386087289482-36.911359278073704L-34.68386087289482-36.911359278073704Q-30.992956232483035-34.17732874872939 -30.06802546465498-30.7913867712695Q-29.145729827219597-27.41509135214995 -29.741847017227848-24.588088646849393Q-30.330952779288427-21.77336763028185 -32.031527992037596-19.53617207651747L-32.031527992037596-19.53617207651747Q-35.40195081605422-14.987243632658648 -41.93267081246547-13.203260356819351L-41.93267081246547-13.203260356819351Q-47.45050218314084-11.69596577221067 -51.985173974612465-14.52086430908444ZM-16.695849850851097-21.886368768655828L-16.807540425298022-21.88134725695956L-17.26125857997407-21.757090119871332Q-20.877924761088252-20.930152556094644 -23.177015902078246-22.281699789979328L-23.177015902078246-22.281699789979328Q-25.342127046417087-23.540784271918383 -25.995207117000835-26.397073196625815L-25.995207117000835-26.397073196625815Q-26.893470831831042-30.32568902139405 -24.584476706041734-34.62860037617125L-24.584476706041734-34.62860037617125Q-22.33647111088507-38.79447013459437 -18.317160116341277-41.180374392761365L-18.317160116341277-41.180374392761365Q-18.689905960804694-42.18250239627951 -17.944618806288013-43.05045807332323L-17.944618806288013-43.05045807332323Q-17.42018926141641-43.67301220949595 -15.948176880423844-44.00958248477973Q-14.466416073067087-44.34838170228392 -13.039225999908775-44.38747767494575Q-11.602287500386275-44.428802589828 -9.992055134926254-43.80194397002205L-9.992055134926254-43.80194397002205Q-6.527316117646061-42.51175656420215 -5.758331051600351-39.14854946855689L-5.758331051600351-39.14854946855689Q-4.926935603382816-35.51238643471433 -5.9836988369163295-31.834309291932815L-5.9836988369163295-31.834309291932815Q-2.249000985324832-33.58068610044748 -0.3124581069706007-38.660115367628535L-0.3124581069706007-38.660115367628535Q 0.7052724920904954-38.964622227542634  0.9125641185897742-38.05801857567303L 0.9125641185897742-38.05801857567303Q 0.9972639229658231-37.687578373833844  0.8836645701280901-37.10766873687749L 0.8836645701280901-37.10766873687749Q-0.529025752824352-29.01930635309198 -9.3099499971295-24.488095762557254L-9.3099499971295-24.488095762557254Q-12.44553595606461-22.858187576759974 -16.695849850851097-21.886368768655828L-16.695849850851097-21.886368768655828ZM-19.48660114023934-31.80382344416496L-19.48660114023934-31.80382344416496Q-18.88032885628446-29.1522514731055 -16.667436071613515-29.658221357141375L-16.667436071613515-29.658221357141375Q-14.795738209689194-30.086178263462465 -13.411909663810288-32.78245691293671L-13.411909663810288-32.78245691293671Q-11.96040576063748-35.58653187967247 -12.515412373522643-38.01389004435557L-12.515412373522643-38.01389004435557Q-13.079334755289498-40.48024191449543 -15.640724050226293-40.73575097457589L-15.640724050226293-40.73575097457589Q-19.474276883396332-38.65902935738837 -19.70543434207415-34.42088516100977L-19.70543434207415-34.42088516100977Q-19.789737282216777-33.12960942969468 -19.48660114023934-31.80382344416496ZM 21.95220819887046-36.9237763969514L 21.95220819887046-36.9237763969514Q 23.660556476625953-37.196624636619255  25.526159700971746-39.08448708110789L 25.526159700971746-39.08448708110789Q 27.166971991279752-40.7946727517221  28.24314036509353-43.123548366949976L 28.24314036509353-43.123548366949976Q 29.293852108451425-43.392629827422134  29.413645629234257-42.38896179845117L 29.413645629234257-42.38896179845117Q 29.51019368900398-41.59424268319428  28.82758287073473-39.844687748137424Q 28.143394895010758-38.105007658616735  27.434042845787587-36.77650486589746Q 26.72311363910969-35.457876918714355  25.788629200817393-34.14405088967188Q 24.864019608061255-32.831802018084126  23.753435553349274-31.732892077543276L 23.753435553349274-31.732892077543276Q 21.26756522693509-29.290260562096577  18.61123177770834-28.86600520677489L 18.61123177770834-28.86600520677489Q 15.204410067733514-28.321885884893916  13.743908395401384-30.174730958048997L 13.743908395401384-30.174730958048997Q 13.246811240205535-30.814335850381905  13.111999500714564-31.785225027834937L 13.111999500714564-31.785225027834937Q 11.527000185608255-29.091532920129875  8.044464143955613-27.563153805318912L 8.044464143955613-27.563153805318912Q 6.872029493477913-27.041716378239464  5.459926581807189-26.816182862213438Q 4.047823670136466-26.59064934618741  2.801744965870819-26.847335658201995Q 1.5639639496866042-27.115473973207465  0.6051500133616035-27.79273008097539L 0.6051500133616035-27.79273008097539Q-1.3827670346884422-29.20690327053598 -1.8338340667404949-32.03110909387743L-1.8338340667404949-32.03110909387743Q-2.3448330820721925-35.230559047592926 -0.17378178231725983-39.010272826946114L-0.17378178231725983-39.010272826946114Q 1.9593472927477649-42.773803130944245  5.785866098785697-45.57233021264956L 5.785866098785697-45.57233021264956Q 9.871531847834074-48.523641003984984  14.492959558756446-49.261750692797435L 14.492959558756446-49.261750692797435Q 16.55680227581366-49.591376600835474  16.621454957606584-47.728255555187346L 16.621454957606584-47.728255555187346Q 11.298913213616927-46.878167687089245  7.798052972942894-43.37214749672129L 7.798052972942894-43.37214749672129Q 6.263533470238768-41.82071271052476  5.518931164650906-40.14227075248353Q 4.785780862053929-38.45553110636089  5.014468692989411-37.023678503617845L 5.014468692989411-37.023678503617845Q 5.443455520675279-34.33772051778262  7.704795148455672-34.69888957491521L 7.704795148455672-34.69888957491521Q 10.973369020924272-35.22092869243  13.631653404189796-39.81771280066117L 13.631653404189796-39.81771280066117Q 14.558322500984904-41.43409282560732  15.685583151487105-44.26733891901844Q 16.81442095944402-47.09071016689341  17.541674533029884-48.87777542583237Q 18.25747610362486-50.67313837285277  19.01318895717226-52.53563618036375Q 19.778776656255825-54.399711145329476  20.47914810733487-56.10146901016026L 20.47914810733487-56.10146901016026Q 22.209126564425006-60.29682054942417  22.64067679043589-61.14550447317313L 22.64067679043589-61.14550447317313Q 23.28563639327012-62.433342627100835  24.4212436299284-62.614715734394494L 24.4212436299284-62.614715734394494Q 25.744472931773696-62.82605483332797  26.49824562513323-61.9742762665951L 26.49824562513323-61.9742762665951Q 24.589284245968855-57.56805720113105  23.104800333306404-52.72329636977452Q 21.62031642064396-47.878535538418  21.099128455117608-45.68893212579039L 21.099128455117608-45.68893212579039Q 19.901356518035115-40.69755532306974  20.219942323890063-38.702836524765644Q 20.540105287199736-36.69824288092538  21.95220819887046-36.9237763969514ZM 43.66102721286976-57.18041277424473Q 42.740899505996325-56.62781436396489  41.6427412994858-56.30216339517529Q 40.55532443854909-55.96731332342594  39.73776604867328-55.904081376249806Q 38.92020765879748-55.84084942907367  38.24675043104961-55.98935990814551Q 37.583263427568504-56.13864150852438  37.03628027733609-56.467441498429814L 37.03628027733609-56.467441498429814Q 35.856383212280804-57.19863430191869  35.76770426197281-58.345210092598165Q 35.67902531166481-59.49178588327764  36.026114802040624-60.32101979820796Q 36.373204292416446-61.150253713138284  37.09772876776489-61.76796261271886L 37.09772876776489-61.76796261271886Q 38.658709196592866-63.11233611023211  40.99174167501894-63.2927784960762Q 43.31480392917823-63.47244976061328  44.44567534693121-62.59704708954735Q 45.587288110258-61.71244531552167  45.682907152329236-60.47613750644119Q 45.77852619440046-59.239829697360705  45.17446988428493-58.49101999242252Q 44.581154919743206-57.733011184524585  43.66102721286976-57.18041277424473ZM 27.449147115793664-32.717439861738214L 27.449147115793664-32.717439861738214Q 26.879638389483798-33.726528465705634  26.760885708201783-35.26194300278946Q 26.642904148226794-36.7873873156065  27.17904743059947-38.5439607927963Q 27.70444936739834-40.30973337294585  28.62100341452263-42.075669011269085Q 29.526816116073118-43.85080375255206  30.690366758670347-45.53554405957614Q 31.854688522574595-47.21031414233344  33.016859980731454-48.523842787565655L 33.016859980731454-48.523842787565655Q 35.59420540480063-51.381095062922114  36.91027500801533-51.48288307544956L 36.91027500801533-51.48288307544956Q 37.4686075669549-51.526065868643016  38.19433798540687-51.090732249755696Q 38.91929728255182-50.66536885513514  39.12646733368219-50.45070500183274L 39.12646733368219-50.45070500183274Q 35.89003403991266-46.38904283776984  35.22580990152276-42.78709804446995L 35.22580990152276-42.78709804446995Q 35.00921315337119-41.69715040871392  35.08786752668785-40.680187533502554Q 35.16652190000451-39.663224658291185  35.99668999441554-38.91501283332317Q 36.82685808882656-38.16680100835516  37.97343387950605-38.25547995866316Q 39.120009670185524-38.34415890897115  40.08387388066121-38.84999068314522Q 41.036996745563094-39.36502156027903  41.940159783681956-40.136964904428L 41.940159783681956-40.136964904428Q 43.72423204746507-41.70922002291223  44.985725279217775-43.94314813864068L 44.985725279217775-43.94314813864068Q 46.03717120234707-44.09467856705288  46.108885483900494-43.16744771024253L 46.108885483900494-43.16744771024253Q 46.16903294584852-42.389770217433835  45.3199571046706-40.659143101060124Q 44.48162260906649-38.91931688172665  43.61701563629892-37.64886232423878Q 42.75317978483838-36.36843754248414  41.617063392946726-35.1070733825069Q 40.48094700105507-33.84570922252965  39.10620764261864-32.816636000467284L 39.10620764261864-32.816636000467284Q 36.01476552089637-30.511384255420502  32.575038148857935-30.24534740449651L 32.575038148857935-30.24534740449651Q 28.95584674001749-29.965430370046047  27.449147115793664-32.717439861738214ZM 64.81139251956377-40.8206970876369L 64.81139251956377-40.8206970876369Q 64.68945169937132-38.01334416426392  66.67757707926891-37.92698749800664L 66.67757707926891-37.92698749800664Q 68.405947384406-37.851913612265385  70.61206209747374-39.32756867791796L 70.61206209747374-39.32756867791796Q 72.57232755202313-40.6737705007143  74.0934124728179-42.73970870495247L 74.0934124728179-42.73970870495247Q 75.14546102333571-42.76407768838095  75.10510338533608-41.83495376712227L 75.10510338533608-41.83495376712227Q 75.07038713759447-41.035707383243846  74.03013258927156-39.439345746679784Q 72.97988746115014-37.843418063212496  72.01867032787601-36.68403821920096Q 71.05788714769864-35.53464895498788  69.87904702434176-34.43476897809768Q 68.71019748078339-33.33445504811071  67.4019041145703-32.48042432973883L 67.4019041145703-32.48042432973883Q 64.4769209262543-30.58556988992856  61.789454960463075-30.70230327295976L 61.789454960463075-30.70230327295976Q 57.713298402683094-30.87935613644203  56.48085990124992-33.845632478960574L 56.48085990124992-33.845632478960574Q 53.819537365565324-32.029410476820594  50.930986920232485-31.4341993170063L 50.930986920232485-31.4341993170063Q 49.94062731946539-31.216971645729302  48.73176716384927-31.269479970438503Q 47.532897588031624-31.321554342050938  46.36267857517359-31.802789691901253Q 45.202884095210806-32.29358166845328  44.39925954607362-33.149261272057366L 44.39925954607362-33.149261272057366Q 42.734236734492214-34.91317709683858  42.86225289803944-37.86039813739028L 42.86225289803944-37.86039813739028Q 43.00545741997363-41.15728947088879  45.41129680185608-44.69622107076232L 45.41129680185608-44.69622107076232Q 47.42057963919501-47.631792987710575  50.41852489920501-49.823761102894636L 50.41852489920501-49.823761102894636Q 53.17757380881778-51.815907963536326  54.81602889576856-51.744739655666L 54.81602889576856-51.744739655666Q 55.7151810776318-51.70568387695668  56.77293862841699-50.24840937853267L 56.77293862841699-50.24840937853267Q 54.40523882618649-48.7397352432345  52.63788035234941-46.3041359278798L 52.63788035234941-46.3041359278798Q 50.66855017563165-43.597045487006284  50.57091072885834-41.34916503234821L 50.57091072885834-41.34916503234821Q 50.452875486536826-38.631727327161556  52.720737100791865-38.53321997419471L 52.720737100791865-38.53321997419471Q 54.96861755544994-38.43558052742139  56.29081673790522-39.14887522242101L 56.29081673790522-39.14887522242101Q 57.35878633298485-42.76593769685873  60.71458904334371-46.513842200597864L 60.71458904334371-46.513842200597864Q 64.04954268791208-50.24263345093358  66.70960199859742-51.10801455983085L 66.70960199859742-51.10801455983085Q 67.56226324766963-51.38127047345504  68.97271910450627-50.20895896369526L 68.97271910450627-50.20895896369526Q 69.31154057003383-49.944006110346294  69.49311647736631-49.74593998533653L 69.49311647736631-49.74593998533653Q 67.42079453812252-48.12434145915044  66.05481438575728-45.250911762195216L 66.05481438575728-45.250911762195216Q 64.89774918582104-42.80882246753448  64.81139251956377-40.8206970876369ZM 78.52082179946063-29.84434152323856L 78.52082179946063-29.84434152323856Q 78.19733544889431-28.961756353978803  76.72323043215195-29.502047386307673L 76.72323043215195-29.502047386307673Q 74.57310273257232-30.290115197793735  73.42461077489843-32.21278683464658L 73.42461077489843-32.21278683464658Q 72.02163456406157-34.51629671129696  73.04715512223993-37.31427948192895L 73.04715512223993-37.31427948192895Q 74.4168100959144-41.05118264539048  79.18026202327017-44.225820535886115L 79.18026202327017-44.225820535886115Q 83.57664108744825-47.183530988931935  87.31457245662568-47.56018610879557L 87.31457245662568-47.56018610879557Q 87.9298428246392-47.611590138253426  88.36174620534078-47.45328830712522Q 88.79364958604236-47.29498647599702  89.0684430155813-47.172967743491604L 89.0684430155813-47.172967743491604Q 89.76732230897531-46.84225981606154  89.94516216219256-46.223250133901665L 89.94516216219256-46.223250133901665Q 87.6198532592093-43.97622131661724  85.6187903210248-41.56774729404101L 85.6187903210248-41.56774729404101Q 89.15190610516562-43.041922607853756  93.61089560118617-43.40990721945914L 93.61089560118617-43.40990721945914Q 98.23137122106095-43.78260689230986  101.42370055668133-42.61254987962313L 101.42370055668133-42.61254987962313Q 102.8790271655671-42.07914153560419  102.2354958085894-40.323360401012955L 102.2354958085894-40.323360401012955Q 101.79156241259943-39.11215309426286  100.4457513366352-37.35815977961998L 100.4457513366352-37.35815977961998Q 105.36176182815794-39.37987708113329  110.2364646497667-38.93516099080196L 110.2364646497667-38.93516099080196Q 111.88327373280231-38.778892490996625  113.0850918356241-38.33840043916162Q 114.29629914237421-37.89446704317165  114.61370333742548-37.39471252646985Q 114.93110753247679-36.894958009768054  114.78002727821232-36.27934875320072Q 114.63238836810278-35.67312870056169  114.12141590896194-34.97641703423224Q 113.60105424589278-34.28314671205776  112.88322133033807-33.54509799730636Q 112.16538841478334-32.807049282554964  111.33989808332582-32.065857193639985Q 110.51440775186826-31.324665104725025  109.78467911676688-30.612277486140137L 109.78467911676688-30.612277486140137Q 108.03232778627616-28.911435102341027  107.67786933831518-27.94434709772661L 107.67786933831518-27.94434709772661Q 107.01713126056268-26.14161994349391  108.97947488157638-25.42237901510707L 108.97947488157638-25.42237901510707Q 111.30799745579361-24.568925664676755  114.71425669049641-26.888386383465054L 114.71425669049641-26.888386383465054Q 115.70187000435335-27.548855869734126  116.64941998687871-28.245310484634615L 116.64941998687871-28.245310484634615Q 117.23936814727954-28.082334510823465  117.35896220129142-27.7402858852671Q 117.46916705137501-27.401678603865683  117.35216135010633-27.082445670303642Q 117.23515564883766-26.763212736741615  116.71165061160494-26.177599830469916Q 116.17875637044395-25.59542826835319  115.25125851286556-24.721215637360295Q 114.31093010720392-23.841055146594073  113.14933900996334-22.96743845558396Q 111.9783587087945-22.09726310872881  110.60519209389469-21.343795493150942Q 109.2285841348399-20.58093867364478  107.69733182167845-20.151676104303284L 107.69733182167845-20.151676104303284Q 104.29120688271735-19.227385619559804  101.0331531195989-20.421532041331258L 101.0331531195989-20.421532041331258Q 97.53098005434475-21.705153411131693  97.24549432527914-24.674782663833096L 97.24549432527914-24.674782663833096Q 97.15054470177233-25.636179860103145  97.58415406529741-26.819219555068354Q 98.02120477297746-28.011648453961858  98.98277718355166-29.182237407960034Q 99.95373879805412-30.349385017803257  101.08401890934624-31.340983157181046Q 102.22712956872161-32.33852915633217  103.38340966473403-33.139538731534294Q 104.53624841659152-33.931159102808124  105.4015041093892-34.5193194432606Q 106.26331845803195-35.09809057978478  106.6760636237607-35.46868662424227Q 107.08286092971613-35.85211321678302  106.73546038436919-35.97944295051657L 106.73546038436919-35.97944295051657Q 105.19563094012878-36.54382339193017  102.09684321518307-35.52818830208453L 102.09684321518307-35.52818830208453Q 99.07941495142843-34.58923853074703  96.68111912552094-32.86953590196649L 96.68111912552094-32.86953590196649Q 92.23306744040156-27.736755348844568  91.5069438237048-25.755633319974258L 91.5069438237048-25.755633319974258Q 91.36240736919643-25.361286754985855  91.28389331217754-25.059897400743818Q 91.21820980324189-24.764455906275114  90.99664914167155-24.653953086200133Q 90.78791902818449-24.549398125898485  90.49060787664263-24.55186372295445L 90.49060787664263-24.55186372295445Q 89.27820868992697-24.527610639620033  87.97400325386809-25.35709733665289Q 86.66635647365425-26.177194829757443  86.09948105667674-27.013348082233666L 86.09948105667674-27.013348082233666Q 84.813294414242-28.879982465508125  85.83881497242035-31.67796523614013L 85.83881497242035-31.67796523614013Q 87.23255935517955-35.48059282709973  93.28250743501592-39.25940589885708L 93.28250743501592-39.25940589885708Q 95.10096300012093-40.4141436862957  94.96951414512479-40.46232250446516L 94.96951414512479-40.46232250446516Q 93.27945743803164-41.08176445235813  89.17449412423896-40.168650991491276L 89.17449412423896-40.168650991491276Q 84.90366851390054-39.20982430951091  82.54292950370622-37.47635630411054L 82.54292950370622-37.47635630411054Q 80.10481585784169-33.87545338264081  78.52082179946063-29.84434152323856Z"></path></svg>