<svg xmlns="http://www.w3.org/2000/svg" width="512" height="512" viewBox="0 0 512 512" data-svgdocument="" id="_wNptEi_bOXha0w3yr_INC" class="fl-svgdocument" x="0" y="0" style=""><rect data-fl-background="" x="0" y="0" width="512" height="512" fill="transparent"></rect><path id="_Wkh89yorrHYOoZ0P8vY-a" d="M47.299511 47.299511 C47.7565785 43.7868583 47.9851123 38.1484628 47.9851123 37.3723454 C47.9851123 36.3248141 46.9231914 34.6380237 44.7993497 32.3119741 C46.0905471 31.070233 46.7361458 29.381709 46.7361458 27.2464022 C46.7361458 24.0434419 42.8813769 18.7515009 37.2163138 21.221778 C39.8343783 22.8995982 40.1961981 24.2523062 39.9272846 26.492322 C39.6583711 28.7323379 36.609255 30.3308458 34.5429588 30.3308458 C32.4766626 30.3308458 28.522538 29.0107985 28.522538 22.9023659 C28.522538 16.7939333 35.59772 13.5891029 38.8042854 13.5891029 C40.9419957 13.5891029 43.071273 14.2218634 45.1921175 15.4873845 C43.8987088 8.2472339 45.5013363 3.08477241 50 -2.84217094e-14 C54.4986637 3.08477241 56.1012912 8.2472339 54.8078825 15.4873845 C56.928727 14.2218634 59.0580043 13.5891029 61.1957146 13.5891029 C64.40228 13.5891029 71.477462 16.7939333 71.477462 22.9023659 C71.477462 29.0107985 67.5233374 30.3308458 65.4570412 30.3308458 C63.390745 30.3308458 60.3416289 28.7323379 60.0727154 26.492322 C59.8038019 24.2523062 60.1656217 22.8995982 62.7836862 21.221778 C57.1186231 18.7515009 53.2638542 24.0434419 53.2638542 27.2464022 C53.2638542 29.381709 53.9094529 31.070233 55.2006503 32.3119741 C53.0768086 34.6380237 52.0148877 36.3248141 52.0148877 37.3723454 C52.0148877 38.1484628 52.2434215 43.7868583 52.700489 47.299511 C56.2131417 47.7565785 61.8515372 47.9851123 62.6276546 47.9851123 C63.6751859 47.9851123 65.3619763 46.9231914 67.6880259 44.7993497 C68.929767 46.0905471 70.618291 46.7361458 72.7535978 46.7361458 C75.9565581 46.7361458 81.2484991 42.8813769 78.778222 37.2163138 C77.1004018 39.8343783 75.7476938 40.1961981 73.507678 39.9272846 C71.2676621 39.6583711 69.6691542 36.609255 69.6691542 34.5429588 C69.6691542 32.4766626 70.9892015 28.522538 77.0976341 28.522538 C83.2060667 28.522538 86.4108971 35.59772 86.4108971 38.8042854 C86.4108971 40.9419957 85.7781366 43.071273 84.5126155 45.1921175 C91.7527661 43.8987088 96.9152276 45.5013363 100 50 C96.9152276 54.4986637 91.7527661 56.1012912 84.5126155 54.8078825 C85.7781366 56.928727 86.4108971 59.0580043 86.4108971 61.1957146 C86.4108971 64.40228 83.2060667 71.477462 77.0976341 71.477462 C70.9892015 71.477462 69.6691542 67.5233374 69.6691542 65.4570412 C69.6691542 63.390745 71.2676621 60.3416289 73.507678 60.0727154 C75.7476938 59.8038019 77.1004018 60.1656217 78.778222 62.7836862 C81.2484991 57.1186231 75.9565581 53.2638542 72.7535978 53.2638542 C70.618291 53.2638542 68.929767 53.9094529 67.6880259 55.2006503 C65.3619763 53.0768086 63.6751859 52.0148877 62.6276546 52.0148877 C61.8515372 52.0148877 56.2131417 52.2434215 52.700489 52.700489 C52.2434215 56.2131417 52.0148877 61.8515372 52.0148877 62.6276546 C52.0148877 63.6751859 53.0768086 65.3619763 55.2006503 67.6880259 C53.9094529 68.929767 53.2638542 70.618291 53.2638542 72.7535978 C53.2638542 75.9565581 57.1186231 81.2484991 62.7836862 78.778222 C60.1656217 77.1004018 59.8038019 75.7476938 60.0727154 73.507678 C60.3416289 71.2676621 63.390745 69.6691542 65.4570412 69.6691542 C67.5233374 69.6691542 71.477462 70.9892015 71.477462 77.0976341 C71.477462 83.2060667 64.40228 86.4108971 61.1957146 86.4108971 C59.0580043 86.4108971 56.928727 85.7781366 54.8078825 84.5126155 C56.1012912 91.7527661 54.4986637 96.9152276 50 100 C45.5013363 96.9152276 43.8987088 91.7527661 45.1921175 84.5126155 C43.071273 85.7781366 40.9419957 86.4108971 38.8042854 86.4108971 C35.59772 86.4108971 28.522538 83.2060667 28.522538 77.0976341 C28.522538 70.9892015 32.4766626 69.6691542 34.5429588 69.6691542 C36.609255 69.6691542 39.6583711 71.2676621 39.9272846 73.507678 C40.1961981 75.7476938 39.8343783 77.1004018 37.2163138 78.778222 C42.8813769 81.2484991 46.7361458 75.9565581 46.7361458 72.7535978 C46.7361458 70.618291 46.0905471 68.929767 44.7993497 67.6880259 C46.9231914 65.3619763 47.9851123 63.6751859 47.9851123 62.6276546 C47.9851123 61.8515372 47.7565785 56.2131417 47.299511 52.700489 C43.7868583 52.2434215 38.1484628 52.0148877 37.3723454 52.0148877 C36.3248141 52.0148877 34.6380237 53.0768086 32.3119741 55.2006503 C31.070233 53.9094529 29.381709 53.2638542 27.2464022 53.2638542 C24.0434419 53.2638542 18.7515009 57.1186231 21.221778 62.7836862 C22.8995982 60.1656217 24.2523062 59.8038019 26.492322 60.0727154 C28.7323379 60.3416289 30.3308458 63.390745 30.3308458 65.4570412 C30.3308458 67.5233374 29.0107985 71.477462 22.9023659 71.477462 C16.7939333 71.477462 13.5891029 64.40228 13.5891029 61.1957146 C13.5891029 59.0580043 14.2218634 56.928727 15.4873845 54.8078825 C8.2472339 56.1012912 3.08477241 54.4986637 4.26325641e-13 50 C3.08477241 45.5013363 8.2472339 43.8987088 15.4873845 45.1921175 C14.2218634 43.071273 13.5891029 40.9419957 13.5891029 38.8042854 C13.5891029 35.59772 16.7939333 28.522538 22.9023659 28.522538 C29.0107985 28.522538 30.3308458 32.4766626 30.3308458 34.5429588 C30.3308458 36.609255 28.7323379 39.6583711 26.492322 39.9272846 C24.2523062 40.1961981 22.8995982 39.8343783 21.221778 37.2163138 C18.7515009 42.8813769 24.0434419 46.7361458 27.2464022 46.7361458 C29.381709 46.7361458 31.070233 46.0905471 32.3119741 44.7993497 C34.6380237 46.9231914 36.3248141 47.9851123 37.3723454 47.9851123 C38.1484628 47.9851123 43.7868583 47.7565785 47.299511 47.299511 Z" fill="#3d4050" transform="matrix(0.3496790900826454, 0.3496790900826454, -0.3496790900826454, 0.3496790900826454, 256.3495674133301, 194.1966028213501)"></path><path id="_6bXBYFZ9F_V0hhyxTNUmE" d="M47.299511 47.299511 C47.7565785 43.7868583 47.9851123 38.1484628 47.9851123 37.3723454 C47.9851123 36.3248141 46.9231914 34.6380237 44.7993497 32.3119741 C46.0905471 31.070233 46.7361458 29.381709 46.7361458 27.2464022 C46.7361458 24.0434419 42.8813769 18.7515009 37.2163138 21.221778 C39.8343783 22.8995982 40.1961981 24.2523062 39.9272846 26.492322 C39.6583711 28.7323379 36.609255 30.3308458 34.5429588 30.3308458 C32.4766626 30.3308458 28.522538 29.0107985 28.522538 22.9023659 C28.522538 16.7939333 35.59772 13.5891029 38.8042854 13.5891029 C40.9419957 13.5891029 43.071273 14.2218634 45.1921175 15.4873845 C43.8987088 8.2472339 45.5013363 3.08477241 50 -2.84217094e-14 C54.4986637 3.08477241 56.1012912 8.2472339 54.8078825 15.4873845 C56.928727 14.2218634 59.0580043 13.5891029 61.1957146 13.5891029 C64.40228 13.5891029 71.477462 16.7939333 71.477462 22.9023659 C71.477462 29.0107985 67.5233374 30.3308458 65.4570412 30.3308458 C63.390745 30.3308458 60.3416289 28.7323379 60.0727154 26.492322 C59.8038019 24.2523062 60.1656217 22.8995982 62.7836862 21.221778 C57.1186231 18.7515009 53.2638542 24.0434419 53.2638542 27.2464022 C53.2638542 29.381709 53.9094529 31.070233 55.2006503 32.3119741 C53.0768086 34.6380237 52.0148877 36.3248141 52.0148877 37.3723454 C52.0148877 38.1484628 52.2434215 43.7868583 52.700489 47.299511 C56.2131417 47.7565785 61.8515372 47.9851123 62.6276546 47.9851123 C63.6751859 47.9851123 65.3619763 46.9231914 67.6880259 44.7993497 C68.929767 46.0905471 70.618291 46.7361458 72.7535978 46.7361458 C75.9565581 46.7361458 81.2484991 42.8813769 78.778222 37.2163138 C77.1004018 39.8343783 75.7476938 40.1961981 73.507678 39.9272846 C71.2676621 39.6583711 69.6691542 36.609255 69.6691542 34.5429588 C69.6691542 32.4766626 70.9892015 28.522538 77.0976341 28.522538 C83.2060667 28.522538 86.4108971 35.59772 86.4108971 38.8042854 C86.4108971 40.9419957 85.7781366 43.071273 84.5126155 45.1921175 C91.7527661 43.8987088 96.9152276 45.5013363 100 50 C96.9152276 54.4986637 91.7527661 56.1012912 84.5126155 54.8078825 C85.7781366 56.928727 86.4108971 59.0580043 86.4108971 61.1957146 C86.4108971 64.40228 83.2060667 71.477462 77.0976341 71.477462 C70.9892015 71.477462 69.6691542 67.5233374 69.6691542 65.4570412 C69.6691542 63.390745 71.2676621 60.3416289 73.507678 60.0727154 C75.7476938 59.8038019 77.1004018 60.1656217 78.778222 62.7836862 C81.2484991 57.1186231 75.9565581 53.2638542 72.7535978 53.2638542 C70.618291 53.2638542 68.929767 53.9094529 67.6880259 55.2006503 C65.3619763 53.0768086 63.6751859 52.0148877 62.6276546 52.0148877 C61.8515372 52.0148877 56.2131417 52.2434215 52.700489 52.700489 C52.2434215 56.2131417 52.0148877 61.8515372 52.0148877 62.6276546 C52.0148877 63.6751859 53.0768086 65.3619763 55.2006503 67.6880259 C53.9094529 68.929767 53.2638542 70.618291 53.2638542 72.7535978 C53.2638542 75.9565581 57.1186231 81.2484991 62.7836862 78.778222 C60.1656217 77.1004018 59.8038019 75.7476938 60.0727154 73.507678 C60.3416289 71.2676621 63.390745 69.6691542 65.4570412 69.6691542 C67.5233374 69.6691542 71.477462 70.9892015 71.477462 77.0976341 C71.477462 83.2060667 64.40228 86.4108971 61.1957146 86.4108971 C59.0580043 86.4108971 56.928727 85.7781366 54.8078825 84.5126155 C56.1012912 91.7527661 54.4986637 96.9152276 50 100 C45.5013363 96.9152276 43.8987088 91.7527661 45.1921175 84.5126155 C43.071273 85.7781366 40.9419957 86.4108971 38.8042854 86.4108971 C35.59772 86.4108971 28.522538 83.2060667 28.522538 77.0976341 C28.522538 70.9892015 32.4766626 69.6691542 34.5429588 69.6691542 C36.609255 69.6691542 39.6583711 71.2676621 39.9272846 73.507678 C40.1961981 75.7476938 39.8343783 77.1004018 37.2163138 78.778222 C42.8813769 81.2484991 46.7361458 75.9565581 46.7361458 72.7535978 C46.7361458 70.618291 46.0905471 68.929767 44.7993497 67.6880259 C46.9231914 65.3619763 47.9851123 63.6751859 47.9851123 62.6276546 C47.9851123 61.8515372 47.7565785 56.2131417 47.299511 52.700489 C43.7868583 52.2434215 38.1484628 52.0148877 37.3723454 52.0148877 C36.3248141 52.0148877 34.6380237 53.0768086 32.3119741 55.2006503 C31.070233 53.9094529 29.381709 53.2638542 27.2464022 53.2638542 C24.0434419 53.2638542 18.7515009 57.1186231 21.221778 62.7836862 C22.8995982 60.1656217 24.2523062 59.8038019 26.492322 60.0727154 C28.7323379 60.3416289 30.3308458 63.390745 30.3308458 65.4570412 C30.3308458 67.5233374 29.0107985 71.477462 22.9023659 71.477462 C16.7939333 71.477462 13.5891029 64.40228 13.5891029 61.1957146 C13.5891029 59.0580043 14.2218634 56.928727 15.4873845 54.8078825 C8.2472339 56.1012912 3.08477241 54.4986637 4.26325641e-13 50 C3.08477241 45.5013363 8.2472339 43.8987088 15.4873845 45.1921175 C14.2218634 43.071273 13.5891029 40.9419957 13.5891029 38.8042854 C13.5891029 35.59772 16.7939333 28.522538 22.9023659 28.522538 C29.0107985 28.522538 30.3308458 32.4766626 30.3308458 34.5429588 C30.3308458 36.609255 28.7323379 39.6583711 26.492322 39.9272846 C24.2523062 40.1961981 22.8995982 39.8343783 21.221778 37.2163138 C18.7515009 42.8813769 24.0434419 46.7361458 27.2464022 46.7361458 C29.381709 46.7361458 31.070233 46.0905471 32.3119741 44.7993497 C34.6380237 46.9231914 36.3248141 47.9851123 37.3723454 47.9851123 C38.1484628 47.9851123 43.7868583 47.7565785 47.299511 47.299511 Z" fill="#cb2a2a" transform="matrix(0.872023418545723, 0, 0, 0.872023418545723, 212.74840927124023, 185.5137529373169)"></path><path text="Genzo" text-anchor="middle" font-size="100" letter-spacing="0" side="left" offset="0.5" dx="0" dy="0" space="preserve" href="" font-family="Macondo" font-scale="contain" transform="matrix(0.4980481453239918, 0, 0, 0.4980481453239918, 255.87548923492432, 312.04286193847656)" x="0" y="0" fill="#3d4050" data-fl-textpath="" id="_-jra8H_WmhIA_NN0ofXWV" font-weight="400" font-style="normal" d="M-73.40000000000002-13.6L-73.40000000000002-13.6L-73.30000000000001-16.3Q-73.30000000000001-19.4 -73.75000000000001-23.2Q-74.20000000000002-27 -74.20000000000002-28.55Q-74.20000000000002-30.1 -72.85000000000002-31.65Q-71.50000000000001-33.2 -69.40000000000002-33.2Q-67.30000000000001-33.2 -65.95000000000002-31.65Q-64.60000000000002-30.1 -64.60000000000002-28.55Q-64.60000000000002-27 -65.05000000000001-23.2Q-65.50000000000001-19.4 -65.50000000000001-16.3Q-65.50000000000001-13.2 -65.05000000000001-9.4Q-64.60000000000002-5.6 -64.60000000000002-4.05Q-64.60000000000002-2.5 -65.95000000000002-0.95Q-67.30000000000001 0.6 -69.40000000000002 0.6Q-71.50000000000001 0.6 -72.85000000000002-0.95Q-74.20000000000002-2.5 -74.20000000000002-4.5L-74.20000000000002-4.5L-74.20000000000002-6.6Q-83.30000000000001 0.6 -93.50000000000001 0.6L-93.50000000000001 0.6Q-106.50000000000001 0.6 -115.35000000000002-8.75Q-124.20000000000002-18.1 -124.20000000000002-31.4L-124.20000000000002-31.4Q-124.20000000000002-48 -114.25000000000001-58.8Q-104.30000000000001-69.6 -88.90000000000002-69.6L-88.90000000000002-69.6Q-80.00000000000001-69.6 -72.55000000000001-66.1Q-65.10000000000002-62.6 -65.10000000000002-58L-65.10000000000002-58Q-65.10000000000002-55.9 -66.45000000000002-54.5Q-67.80000000000001-53.1 -69.70000000000002-53.1Q-71.60000000000002-53.1 -73.50000000000001-54.6Q-75.40000000000002-56.1 -77.15000000000002-57.95Q-78.90000000000002-59.8 -82.65000000000002-61.3Q-86.40000000000002-62.8 -91.50000000000001-62.8L-91.50000000000001-62.8Q-103.00000000000001-62.8 -109.50000000000001-55.5Q-116.00000000000001-48.2 -116.00000000000001-36.2Q-116.00000000000001-24.2 -108.85000000000002-15.2Q-101.70000000000002-6.2 -90.20000000000002-6.2L-90.20000000000002-6.2Q-81.50000000000001-6.2 -73.40000000000002-13.6ZM-35.30000000000001-19.9L-35.30000000000001-19.9L-47.20000000000001-20.9Q-48.900000000000006-20.9 -49.900000000000006-20.6L-49.900000000000006-20.6Q-49.30000000000001-14.9 -45.05000000000001-11.1Q-40.80000000000001-7.3 -35.00000000000001-7.3L-35.00000000000001-7.3Q-29.40000000000001-7.3 -24.900000000000006-11.4L-24.900000000000006-11.4Q-23.30000000000001-12.8 -22.500000000000007-12.8Q-21.70000000000001-12.8 -21.10000000000001-12.2Q-20.500000000000007-11.6 -20.500000000000007-10.9L-20.500000000000007-10.9Q-20.500000000000007-8 -26.150000000000006-3.7Q-31.800000000000008 0.6 -38.95000000000001 0.6Q-46.10000000000001 0.6 -51.35000000000001-5.2Q-56.60000000000001-11 -56.60000000000001-19.6L-56.60000000000001-19.6Q-56.60000000000001-30.6 -48.30000000000001-38.1Q-40.00000000000001-45.6 -30.000000000000007-45.6L-30.000000000000007-45.6Q-25.80000000000001-45.6 -23.150000000000006-44.15Q-20.500000000000007-42.7 -20.500000000000007-40.45Q-20.500000000000007-38.2 -21.85000000000001-36.8Q-23.20000000000001-35.4 -24.500000000000007-35.4Q-25.80000000000001-35.4 -28.95000000000001-36.6Q-32.10000000000001-37.8 -35.00000000000001-37.8L-35.00000000000001-37.8Q-40.400000000000006-37.8 -44.35000000000001-34.55Q-48.30000000000001-31.3 -49.60000000000001-26.5L-49.60000000000001-26.5L-35.80000000000001-27.3Q-31.20000000000001-27.3 -31.20000000000001-23.7L-31.20000000000001-23.7Q-31.20000000000001-19.9 -35.30000000000001-19.9ZM-4.200000000000006-28.6L-4.200000000000006-28.6L-3.6000000000000068-4.2Q-3.6000000000000068-2.1 -4.800000000000008-0.75Q-6.000000000000007 0.6 -7.9000000000000075 0.6Q-9.800000000000008 0.6 -11.150000000000007-0.75Q-12.500000000000007-2.1 -12.500000000000007-4.2L-12.500000000000007-4.2L-11.800000000000008-24Q-11.800000000000008-24 -12.500000000000007-40.7L-12.500000000000007-40.7Q-12.500000000000007-42.8 -11.150000000000007-44.2Q-9.800000000000008-45.6 -7.9000000000000075-45.6Q-6.000000000000007-45.6 -4.800000000000008-44.25Q-3.6000000000000068-42.9 -3.6000000000000068-40.9Q-3.6000000000000068-38.9 -3.7000000000000064-37.9L-3.7000000000000064-37.9Q 1.8999999999999915-45.6  9.199999999999992-45.6L 9.199999999999992-45.6Q 19.699999999999996-45.6  22.699999999999996-31.5L 22.699999999999996-31.5L 26.499999999999993-14.3Q 27.099999999999994-12  28.949999999999996-9.35Q 30.79999999999999-6.7  30.79999999999999-4.6L 30.79999999999999-4.6Q 30.79999999999999 0.6  25.79999999999999 0.6Q 20.79999999999999 0.6  19.29999999999999-7.3L 19.29999999999999-7.3L 15.499999999999993-28.2Q 13.599999999999994-38.2  5.199999999999992-38.2L 5.199999999999992-38.2Q 0.8999999999999915-38.2 -1.500000000000007-35.3Q-3.9000000000000075-32.4 -4.200000000000006-28.6ZM 56.599999999999994-38.7L 56.599999999999994-38.7L 44.199999999999996-38.1Q 42.599999999999994-38.1  41.449999999999996-39.05Q 40.3-40  40.3-41.8Q 40.3-43.6  41.5-44.6Q 42.699999999999996-45.6  44.199999999999996-45.6L 44.199999999999996-45.6L 56.599999999999994-45L 70.3-45.6Q 74.19999999999999-45.6  74.19999999999999-41.8L 74.19999999999999-41.8Q 74.19999999999999-38.5  71-35L 71-35Q 52.9-15.4  51.099999999999994-12.85Q 49.3-10.3  49.3-9.4L 49.3-9.4Q 49.3-6.1  58.5-6.1L 58.5-6.1Q 64.8-6.1  70.19999999999999-9.4L 70.19999999999999-9.4Q 72-10.5  73.1-10.5L 73.1-10.5Q 75-10.5  75-8.9L 75-8.9Q 75-6.3  68.3-2.85Q 61.599999999999994 0.6  54.65 0.6Q 47.699999999999996 0.6  43.599999999999994-2Q 39.5-4.6  39.5-7.25Q 39.5-9.9  42.3-13.4L 42.3-13.4Q 43.099999999999994-14.4  51.849999999999994-24.3Q 60.599999999999994-34.2  64.1-38.3L 64.1-38.3Q 59.099999999999994-38.7  56.599999999999994-38.7ZM 93.35-33.3Q 88.89999999999999-28.9  88.89999999999999-22.5Q 88.89999999999999-16.1  93.35-11.65Q 97.8-7.2  104.15-7.2Q 110.5-7.2  114.8-11.65Q 119.1-16.1  119.1-22.5Q 119.1-28.9  114.8-33.3Q 110.5-37.7  104.15-37.7Q 97.8-37.7  93.35-33.3ZM 97.3 0.6Q 90.89999999999999 0.6  86.6-4.4Q 82.3-9.4  82.3-16.95Q 82.3-24.5  87-31.55Q 91.7-38.6  98-42.1Q 104.3-45.6  110.69999999999999-45.6Q 117.1-45.6  121.4-40.6Q 125.69999999999999-35.6  125.69999999999999-28.05Q 125.69999999999999-20.5  121-13.45Q 116.3-6.4  110-2.9Q 103.69999999999999 0.6  97.3 0.6Z"></path></svg>