<svg xmlns="http://www.w3.org/2000/svg" width="512" height="512" viewBox="0 0 512 512" style="" data-svgdocument="" id="_P2B_zMEXi7FLF264bMBZY" class="fl-svgdocument" x="0" y="0" overflow="hidden"><rect data-fl-background="" x="0" y="0" width="512" height="512" fill="transparent"></rect><path id="_cecG-bp7vBhoX57UMlBMw" d="M43.17 0l14.559 25.219l28.611 0.007L72.039 49.997L86.34 74.773l-28.607 0.004L43.17 100L28.607 74.777L0 74.773  l14.305-24.776L0 25.227l28.611-0.007L43.17 0z M24.51 49.997l9.227 15.999h18.836l9.257-15.999l-9.254-16.039h-18.81L24.51 49.997z   M62.777 66.021h8.311l-4.152-7.191L62.777 66.021z M15.246 65.992h8.309L19.4 58.8L15.246 65.992z M39.041 25h8.311l-4.156-7.193  L39.041 25z M66.934 41.155l4.153-7.193h-8.31L66.934 41.155z M19.4 41.183l4.154-7.192h-8.309L19.4 41.183z M43.195 82.175  l4.155-7.192h-8.31L43.195 82.175z" fill="rgba(240,193,8,1)" transform="matrix(1.3208142220973969, 0, 0, 1.3208142220973969, 198.98045444488525, 132.71785974502563)"></path><path text="Sodium" text-anchor="middle" font-size="100" letter-spacing="0" side="left" offset="0.5" dx="0" dy="0" space="preserve" href="" font-family="Cinzel" font-scale="contain" transform="matrix(0.9987994879484177, 0, 0, 0.9987994879484177, 253.4530734981081, 336.1135669183294)" x="0" y="0" fill="#eca371" data-fl-textpath="" id="_9zgYoaSm6-WpbJ2E5mGTg" d="M-188.3-4.1L-188.3-4.1Q-188.6-5.5 -188.6-9.5Q-188.6-13.5 -187.1-18L-187.1-18L-186.20000000000002-18Q-186.3-16.9 -186.3-15.8L-186.3-15.8Q-186.3-9.7 -182.6-5.65Q-178.9-1.6 -172.8-1.6L-172.8-1.6Q-166.5-1.6 -162.45000000000002-5.4Q-158.4-9.2 -158.4-14.95Q-158.4-20.7 -162.3-24.3L-162.3-24.3L-181.5-42.1Q-186.9-47.1 -186.9-54.2Q-186.9-61.3 -182.15-66.35Q-177.4-71.4 -169.3-71.4L-169.3-71.4Q-165.5-71.4 -160.7-70.4L-160.7-70.4L-156.8-70.4L-156.8-58.1L-157.7-58.1Q-157.7-62.8 -160.95-65.6Q-164.20000000000002-68.4 -169.3-68.4Q-174.4-68.4 -177.85-65Q-181.3-61.6 -181.3-56.5Q-181.3-51.4 -177.3-47.7L-177.3-47.7L-157.60000000000002-29.5Q-152.60000000000002-24.9 -152.60000000000002-16.9Q-152.60000000000002-8.9 -157.7-3.75Q-162.8 1.4 -171.3 1.4L-171.3 1.4Q-175.70000000000002 1.4 -180.65 0.05Q-185.6-1.3 -188.3-4.1ZM-125.10000000000001-57.45Q-117.4-61.4 -108.15-61.4Q-98.9-61.4 -91.2-57.45Q-83.5-53.5 -78.95-46.3Q-74.4-39.1 -74.4-30Q-74.4-20.9 -78.95-13.7Q-83.5-6.5 -91.2-2.55Q-98.9 1.4 -107 1.4Q-115.10000000000001 1.4 -121.30000000000001-0.9Q-127.5-3.2 -132.05-7.3Q-136.6-11.4 -139.25-17.3Q-141.9-23.2 -141.9-31.15Q-141.9-39.1 -137.35-46.3Q-132.8-53.5 -125.10000000000001-57.45ZM-126.95-9.55Q-119.4-1.6 -108.2-1.6Q-97-1.6 -89.4-9.55Q-81.80000000000001-17.5 -81.80000000000001-30Q-81.80000000000001-42.5 -89.4-50.45Q-97-58.4 -108.2-58.4Q-119.4-58.4 -126.95-50.45Q-134.5-42.5 -134.5-30Q-134.5-17.5 -126.95-9.55ZM 0-30L 0-30Q 0-16.1 -8.649999999999999-8.05Q-17.299999999999997 0 -32.1 0L-32.1 0L-65.5 0L-65.5-1L-64.2-1Q-61.8-1 -60.2-2.6Q-58.6-4.2 -58.5-6.4L-58.5-6.4L-58.5-53.6Q-58.6-56 -60.25-57.5Q-61.9-59 -64.3-59L-64.3-59L-65.5-59L-65.5-60L-32.1-60Q-22.299999999999997-60 -15.049999999999997-56.4Q-7.799999999999997-52.8 -3.9000000000000057-46Q 0-39.2  0-30ZM-32.1-57L-52-57L-52-3L-32.1-3Q-20.6-3 -13.899999999999999-10.25Q-7.200000000000003-17.5 -7.200000000000003-30L-7.200000000000003-30Q-7.200000000000003-42.5 -13.899999999999999-49.75Q-20.6-57 -32.1-57L-32.1-57ZM 9-1L 10.4-1Q 13.1-1  15.1-2.6Q 17.1-4.2  17.1-6.4L 17.1-6.4L 17.1-53.6Q 17.1-55.8  15.1-57.4Q 13.1-59  10.3-59L 10.3-59L 9-59L 9-60L 31.6-60L 31.6-59L 30.3-59Q 27.6-59  25.65-57.5Q 23.7-56  23.5-53.8L 23.5-53.8L 23.5-6.3Q 23.6-4.1  25.6-2.55Q 27.6-1  30.3-1L 30.3-1L 31.6-1L 31.7 0L 9 0L 9-1ZM 103.6-60L 103.6-59L 102.1-59Q 99.39999999999999-59  98-56.9L 98-56.9Q 97.39999999999999-56  97.3-54.8L 97.3-54.8L 97.3-21.1Q 97.3-10.7  90.64999999999999-4.65Q 84 1.4  72.39999999999999 1.4Q 60.8 1.4  54.099999999999994-4.6Q 47.39999999999999-10.6  47.39999999999999-21L 47.39999999999999-21L 47.39999999999999-54.7Q 47.39999999999999-56.5  45.99999999999999-57.75Q 44.599999999999994-59  42.599999999999994-59L 42.599999999999994-59L 41.099999999999994-59L 41.099999999999994-60L 60.099999999999994-60L 60.099999999999994-59L 58.599999999999994-59Q 56.599999999999994-59  55.199999999999996-57.75Q 53.8-56.5  53.8-54.7L 53.8-54.7L 53.8-22.2Q 53.8-12.5  58.74999999999999-6.9Q 63.699999999999996-1.3  72.75-1.3Q 81.8-1.3  87.25-6.6Q 92.69999999999999-11.9  92.69999999999999-21.1L 92.69999999999999-21.1L 92.69999999999999-54.7Q 92.6-56.6  91.25-57.8Q 89.89999999999999-59  87.89999999999999-59L 87.89999999999999-59L 86.39999999999999-59L 86.39999999999999-60L 103.6-60ZM 192.2-1L 192.2-1L 193.7-1L 193.7 0L 172.89999999999998 0L 172.89999999999998-0.9L 174.39999999999998-0.9Q 175.89999999999998-0.9  177.05-2.05Q 178.2-3.2  178-4.8L 178-4.8L 172.8-46L 153.89999999999998-8.8Q 151.1-2.7  150.39999999999998 1.4L 150.39999999999998 1.4L 149.39999999999998 1.4L 125.3-45.1L 120.8-4.8Q 120.6-3.3  121.75-2.1Q 122.89999999999999-0.9  124.5-0.9L 124.5-0.9L 125.89999999999999-0.9L 125.89999999999999 0L 107.39999999999999 0L 107.39999999999999-1L 108.89999999999999-1Q 112.5-1  114.5-3.6L 114.5-3.6Q 115.5-4.9  115.69999999999999-6.7L 115.69999999999999-6.7L 123.5-61.4L 124.5-61.4L 150.89999999999998-10.6L 176.39999999999998-61.4L 177.3-61.4L 185.39999999999998-6.5Q 185.8-4  187.7-2.5Q 189.6-1  192.2-1Z" font-style="normal" font-weight="400"></path></svg>